<svg width="36" height="36" viewBox="0 0 36 36" fill="none" xmlns="http://www.w3.org/2000/svg">
<rect width="36" height="36" rx="18" fill="#EFF6FF"/>
<path d="M18.7399 15.1094L19.9266 16.8907M19.4413 18.5254L17.2253 19.4747M23.3333 12.6667L19.2933 13.6767M12 12V22.6667C12 23.0203 12.1405 23.3594 12.3905 23.6095C12.6406 23.8595 12.9797 24 13.3333 24H24M19.3333 14C19.3333 14.7364 18.7364 15.3333 18 15.3333C17.2636 15.3333 16.6667 14.7364 16.6667 14C16.6667 13.2636 17.2636 12.6667 18 12.6667C18.7364 12.6667 19.3333 13.2636 19.3333 14ZM22 18C22 18.7364 21.403 19.3333 20.6667 19.3333C19.9303 19.3333 19.3333 18.7364 19.3333 18C19.3333 17.2636 19.9303 16.6667 20.6667 16.6667C21.403 16.6667 22 17.2636 22 18ZM17.3333 20C17.3333 20.7364 16.7364 21.3333 16 21.3333C15.2636 21.3333 14.6667 20.7364 14.6667 20C14.6667 19.2636 15.2636 18.6667 16 18.6667C16.7364 18.6667 17.3333 19.2636 17.3333 20Z" stroke="#2563EB" stroke-width="2" stroke-linecap="round"/>
</svg>
