<svg width="44" height="44" viewBox="0 0 44 44" fill="none" xmlns="http://www.w3.org/2000/svg">
<rect width="44" height="44" rx="8" fill="#EFF6FF"/>
<path d="M27.834 29.5V27.8333C27.834 26.9493 27.4828 26.1014 26.8576 25.4763C26.2324 24.8512 25.3845 24.5 24.5003 24.5H19.4997C18.6156 24.5 17.7676 24.8512 17.1424 25.4763C16.5172 26.1014 16.166 26.9493 16.166 27.8333V29.5M25.3337 17.8333C25.3337 19.6743 23.8412 21.1667 22 21.1667C20.1589 21.1667 18.6663 19.6743 18.6663 17.8333C18.6663 15.9924 20.1589 14.5 22 14.5C23.8412 14.5 25.3337 15.9924 25.3337 17.8333Z" stroke="#2563EB" stroke-width="2" stroke-linecap="round"/>
</svg>
